<svg width="20" height="18" viewBox="0 0 20 18" fill="none" xmlns="http://www.w3.org/2000/svg">
<path d="M17.8484 2.11962L17.848 2.11923C17.3337 1.61274 16.7274 1.21036 16.0623 0.933856L16.0616 0.933586C15.3716 0.645643 14.6317 0.498288 13.8847 0.500015L13.8835 0.500018C12.8341 0.500016 11.811 0.78865 10.9222 1.33339L10.9222 1.3334C10.7095 1.46372 10.5079 1.60664 10.317 1.76217L10.0011 2.01955L9.6853 1.76217C9.49443 1.60664 9.29275 1.46372 9.08009 1.3334L9.08008 1.33339C8.19125 0.788649 7.16817 0.500016 6.11876 0.500016C5.36218 0.500016 4.63131 0.645381 3.94067 0.933588L3.94013 0.933814C3.27251 1.2115 2.67117 1.61063 2.15413 2.11938L2.15345 2.12004C1.63992 2.62342 1.22957 3.22325 0.945775 3.88562L17.8484 2.11962ZM17.8484 2.11962C18.3615 2.62376 18.7719 3.22367 19.0566 3.88585C19.3518 4.57493 19.5021 5.30517 19.5 6.05733V6.05874C19.5 6.7651 19.3564 7.51192 19.0627 8.28341L19.0623 8.28454C18.8189 8.92857 18.4608 9.60655 17.9983 10.3001C17.2661 11.3969 16.2501 12.5537 14.9742 13.7371C12.8548 15.7013 10.7577 17.0575 10.6773 17.1092L10.6772 17.1093L10.1295 17.4622C10.1293 17.4623 10.1292 17.4624 10.129 17.4625C10.0506 17.5125 9.94944 17.5125 9.87104 17.4626C9.87085 17.4624 9.87066 17.4623 9.87048 17.4622L9.32278 17.1093L9.32282 17.1092L9.31489 17.1043C9.31494 17.1044 9.31494 17.1043 9.31487 17.1043C9.31446 17.104 9.31198 17.1025 9.30668 17.0991L9.28336 17.0841C9.26369 17.0714 9.23642 17.0536 9.20203 17.0309C9.13329 16.9855 9.03665 16.9208 8.91605 16.8384C8.67483 16.6734 8.33834 16.4373 7.93795 16.1412C7.13641 15.5484 6.08269 14.7177 5.02579 13.7372L5.02573 13.7371M17.8484 2.11962L5.02573 13.7371M0.937154 8.28316C1.18337 8.92891 1.53977 9.60742 2.00166 10.3001L0.937154 8.28316ZM0.937154 8.28316C0.643534 7.51176 0.5 6.76502 0.5 6.05874C0.5 5.30555 0.650572 4.57478 0.945759 3.88566L0.937154 8.28316ZM5.02573 13.7371C3.74992 12.5538 2.73406 11.397 2.00183 10.3004L5.02573 13.7371Z" stroke="white"/>
</svg>
