<svg width="20" height="20" viewBox="0 0 20 20" fill="none" xmlns="http://www.w3.org/2000/svg">
<path d="M9.375 9.425H9.425V9.375V5.625C9.425 5.4725 9.48558 5.32625 9.59341 5.21841C9.70125 5.11058 9.8475 5.05 10 5.05C10.1525 5.05 10.2988 5.11058 10.4066 5.21841C10.5144 5.32625 10.575 5.4725 10.575 5.625V9.375V9.425H10.625H14.375C14.5275 9.425 14.6738 9.48558 14.7816 9.59341C14.8894 9.70125 14.95 9.8475 14.95 10C14.95 10.1525 14.8894 10.2988 14.7816 10.4066C14.6738 10.5144 14.5275 10.575 14.375 10.575H10.625H10.575V10.625V14.375C10.575 14.5275 10.5144 14.6738 10.4066 14.7816C10.2988 14.8894 10.1525 14.95 10 14.95C9.8475 14.95 9.70125 14.8894 9.59341 14.7816C9.48558 14.6738 9.425 14.5275 9.425 14.375V10.625V10.575H9.375H5.625C5.4725 10.575 5.32625 10.5144 5.21841 10.4066C5.11058 10.2988 5.05 10.1525 5.05 10C5.05 9.8475 5.11058 9.70125 5.21841 9.59341C5.32625 9.48558 5.4725 9.425 5.625 9.425H9.375ZM17.0357 17.0357C15.1697 18.9017 12.6389 19.95 10 19.95C7.3611 19.95 4.83027 18.9017 2.96429 17.0357C1.0983 15.1697 0.05 12.6389 0.05 10C0.05 7.3611 1.0983 4.83027 2.96429 2.96429C4.83027 1.0983 7.3611 0.05 10 0.05C12.6389 0.05 15.1697 1.0983 17.0357 2.96429C18.9017 4.83027 19.95 7.3611 19.95 10C19.95 12.6389 18.9017 15.1697 17.0357 17.0357ZM6.63239 18.1301C7.70005 18.5724 8.84437 18.8 10 18.8C12.3339 18.8 14.5722 17.8729 16.2225 16.2225C17.8729 14.5722 18.8 12.3339 18.8 10C18.8 7.66609 17.8729 5.42778 16.2225 3.77746C14.5722 2.12714 12.3339 1.2 10 1.2C8.84437 1.2 7.70005 1.42762 6.63239 1.86986C5.56472 2.3121 4.59462 2.9603 3.77746 3.77746C2.9603 4.59462 2.3121 5.56472 1.86986 6.63239C1.42762 7.70005 1.2 8.84437 1.2 10C1.2 11.1556 1.42762 12.2999 1.86986 13.3676C2.3121 14.4353 2.9603 15.4054 3.77746 16.2225C4.59462 17.0397 5.56472 17.6879 6.63239 18.1301Z" fill="white" stroke="white" stroke-width="0.1"/>
</svg>
