<svg width="70" height="71" viewBox="0 0 70 71" fill="none" xmlns="http://www.w3.org/2000/svg">
<path d="M26.25 25.9431V44.6847C26.25 46.0275 26.8625 47.0492 28.0875 47.7499C29.3125 48.4505 30.5083 48.3921 31.675 47.5747L46.2 38.2915C47.3083 37.5909 47.8625 36.5983 47.8625 35.3139C47.8625 34.0294 47.3083 33.0369 46.2 32.3362L31.675 23.053C30.5083 22.2357 29.3125 22.1773 28.0875 22.8779C26.8625 23.5785 26.25 24.6002 26.25 25.9431ZM35 70.3448C30.1583 70.3448 25.6083 69.4247 21.35 67.5844C17.0917 65.7464 13.3875 63.2511 10.2375 60.0983C7.0875 56.9455 4.59433 53.238 2.758 48.9759C0.919334 44.7138 0 40.1598 0 35.3139C0 30.4679 0.919334 25.9139 2.758 21.6518C4.59433 17.3897 7.0875 13.6823 10.2375 10.5295C13.3875 7.3767 17.0917 4.88016 21.35 3.03986C25.6083 1.20191 30.1583 0.282928 35 0.282928C39.8417 0.282928 44.3917 1.20191 48.65 3.03986C52.9083 4.88016 56.6125 7.3767 59.7625 10.5295C62.9125 13.6823 65.4057 17.3897 67.242 21.6518C69.0807 25.9139 70 30.4679 70 35.3139C70 40.1598 69.0807 44.7138 67.242 48.9759C65.4057 53.238 62.9125 56.9455 59.7625 60.0983C56.6125 63.2511 52.9083 65.7464 48.65 67.5844C44.3917 69.4247 39.8417 70.3448 35 70.3448Z" fill="white"/>
</svg>
