<svg width="20" height="16" viewBox="0 0 20 16" fill="none" xmlns="http://www.w3.org/2000/svg">
<path d="M19.8405 7.26636L12.5675 0.15596C12.4912 0.081474 12.3941 0.0307594 12.2883 0.0102214C12.1826 -0.0103165 12.073 0.000243412 11.9734 0.0405675C11.8737 0.0808915 11.7886 0.149171 11.7286 0.236782C11.6687 0.324393 11.6367 0.427407 11.6366 0.532811V4.28355C6.68367 4.60263 0.691651 9.17195 0.00617308 15.0078C-0.0160893 15.1936 0.0221995 15.3816 0.115585 15.5449C0.20897 15.7082 0.352688 15.8385 0.526267 15.9173C0.699846 15.9961 0.894431 16.0194 1.0823 15.9837C1.27017 15.9481 1.44175 15.8554 1.57259 15.7188C2.59626 14.6514 6.27275 11.2517 11.6366 11.0322V14.7536C11.6367 14.859 11.6687 14.962 11.7286 15.0496C11.7886 15.1372 11.8737 15.2055 11.9734 15.2459C12.073 15.2862 12.1826 15.2967 12.2883 15.2762C12.3941 15.2557 12.4912 15.2049 12.5675 15.1305L19.8405 8.02006C19.9426 7.92007 20 7.78453 20 7.64321C20 7.50189 19.9426 7.36635 19.8405 7.26636ZM12.7275 13.4666V10.4874C12.7275 10.3459 12.67 10.2103 12.5677 10.1103C12.4654 10.0103 12.3267 9.95409 12.182 9.95409C9.66104 9.95409 7.20369 10.5985 4.87997 11.8695C3.52559 12.6133 2.27802 13.5293 1.16985 14.5936C1.59714 12.233 3.00264 9.97187 5.16998 8.17027C7.31551 6.39356 9.9356 5.33233 12.182 5.33233C12.3267 5.33233 12.4654 5.27615 12.5677 5.17614C12.67 5.07613 12.7275 4.94049 12.7275 4.79905V1.82068L18.6832 7.64321L12.7275 13.4666Z" fill="white"/>
</svg>
