<svg width="40" height="23" viewBox="0 0 40 23" fill="none" xmlns="http://www.w3.org/2000/svg">
<path fill-rule="evenodd" clip-rule="evenodd" d="M27 1.57471C27 1.30926 27.1054 1.05468 27.2929 0.866974C27.4804 0.679272 27.7348 0.573822 28 0.573822H32C32.2652 0.573822 32.5196 0.679272 32.7071 0.866974C32.8946 1.05468 33 1.30926 33 1.57471V3.57647H36C36.2652 3.57647 36.5196 3.68192 36.7071 3.86963C36.8946 4.05733 37 4.31191 37 4.57736V10.5827H40V12.5844H37V18.5897C37 18.8552 36.8946 19.1098 36.7071 19.2975C36.5196 19.4852 36.2652 19.5906 36 19.5906H33V21.5924C33 21.8578 32.8946 22.1124 32.7071 22.3001C32.5196 22.4878 32.2652 22.5933 32 22.5933H28C27.7348 22.5933 27.4804 22.4878 27.2929 22.3001C27.1054 22.1124 27 21.8578 27 21.5924V12.5844H13V21.5924C13 21.8578 12.8946 22.1124 12.7071 22.3001C12.5196 22.4878 12.2652 22.5933 12 22.5933H8C7.73478 22.5933 7.48043 22.4878 7.29289 22.3001C7.10536 22.1124 7 21.8578 7 21.5924V19.5906H4C3.73478 19.5906 3.48043 19.4852 3.29289 19.2975C3.10536 19.1098 3 18.8552 3 18.5897V12.5844H0V10.5827H3V4.57736C3 4.31191 3.10536 4.05733 3.29289 3.86963C3.48043 3.68192 3.73478 3.57647 4 3.57647H7V1.57471C7 1.30926 7.10536 1.05468 7.29289 0.866974C7.48043 0.679272 7.73478 0.573822 8 0.573822H12C12.2652 0.573822 12.5196 0.679272 12.7071 0.866974C12.8946 1.05468 13 1.30926 13 1.57471V10.5827H27V1.57471ZM9 20.5915H11V2.57559H9V20.5915ZM7 5.57824H5V17.5889H7V5.57824ZM33 17.5889V5.57824H35V17.5889H33ZM31 2.57559V20.5915H29V2.57559H31Z" fill="black"/>
</svg>
